<svg width="20" height="20" viewBox="0 0 20 20" fill="none" xmlns="http://www.w3.org/2000/svg">
<path d="M17.7313 9.78629L17.7368 9.86842C17.7368 10.1748 17.5091 10.4281 17.2137 10.4682L17.1316 10.4737L10.4737 10.4737L10.4737 17.1316C10.4737 17.438 10.246 17.6912 9.95053 17.7313L9.8684 17.7368C9.56197 17.7368 9.30874 17.5091 9.26866 17.2137L9.26313 17.1316L9.26313 10.4737L2.60524 10.4737C2.29882 10.4737 2.04558 10.246 2.0055 9.95055L1.99997 9.86842C1.99997 9.562 2.22768 9.30876 2.52311 9.26868L2.60524 9.26316L9.26313 9.26316L9.26313 2.60526C9.26313 2.29884 9.49084 2.0456 9.78627 2.00552L9.8684 2C10.1748 2 10.4281 2.2277 10.4681 2.52313L10.4737 2.60526L10.4737 9.26316L17.1316 9.26316C17.438 9.26316 17.6912 9.49086 17.7313 9.78629L17.7368 9.86842L17.7313 9.78629Z" stroke="white" stroke-width="3"/>
</svg>
