<svg width="28" height="26" viewBox="0 0 28 26" fill="none" xmlns="http://www.w3.org/2000/svg">
<path d="M27.4819 5.62383L17.4819 0.123829C17.3343 0.0425953 17.1685 0 16.9999 0C16.8314 0 16.6656 0.0425953 16.5179 0.123829L6.51793 5.62383C6.36115 5.71015 6.2304 5.83698 6.13934 5.99106C6.04828 6.14515 6.00024 6.32085 6.00024 6.49983C6.00024 6.67881 6.04828 6.85451 6.13934 7.0086C6.2304 7.16268 6.36115 7.2895 6.51793 7.37583L15.9999 12.5908V23.3098L12.9639 21.6398L11.9999 23.3908L16.5179 25.8758C16.6655 25.9572 16.8314 25.9999 16.9999 25.9999C17.1685 25.9999 17.3343 25.9572 17.4819 25.8758L27.4819 20.3758C27.6388 20.2895 27.7696 20.1627 27.8607 20.0087C27.9518 19.8546 27.9999 19.6788 27.9999 19.4998V6.49983C27.9999 6.32082 27.9518 6.14509 27.8607 5.99101C27.7696 5.83692 27.6388 5.71011 27.4819 5.62383ZM16.9999 2.14183L24.9249 6.49983L16.9999 10.8578L9.07493 6.49983L16.9999 2.14183ZM25.9999 18.9088L17.9999 23.3088V12.5898L25.9999 8.18983V18.9088Z" fill="#D9D9D9"/>
<path d="M8 12.9998H0V10.9998H8V12.9998ZM10 20.9998H2V18.9998H10V20.9998ZM12 16.9998H4V14.9998H12V16.9998Z" fill="#D9D9D9"/>
</svg>
