<svg width="25" height="25" viewBox="0 0 25 25" fill="none" xmlns="http://www.w3.org/2000/svg">
<path d="M11.25 20H13.75V17.5H11.25V20ZM12.5 0C10.8585 0 9.23303 0.323322 7.71646 0.951506C6.19989 1.57969 4.8219 2.50043 3.66117 3.66117C1.31696 6.00537 0 9.18479 0 12.5C0 15.8152 1.31696 18.9946 3.66117 21.3388C4.8219 22.4996 6.19989 23.4203 7.71646 24.0485C9.23303 24.6767 10.8585 25 12.5 25C15.8152 25 18.9946 23.683 21.3388 21.3388C23.683 18.9946 25 15.8152 25 12.5C25 10.8585 24.6767 9.23303 24.0485 7.71646C23.4203 6.19989 22.4996 4.8219 21.3388 3.66117C20.1781 2.50043 18.8001 1.57969 17.2835 0.951506C15.767 0.323322 14.1415 0 12.5 0ZM12.5 22.5C6.9875 22.5 2.5 18.0125 2.5 12.5C2.5 6.9875 6.9875 2.5 12.5 2.5C18.0125 2.5 22.5 6.9875 22.5 12.5C22.5 18.0125 18.0125 22.5 12.5 22.5ZM12.5 5C11.1739 5 9.90215 5.52678 8.96447 6.46447C8.02678 7.40215 7.5 8.67392 7.5 10H10C10 9.33696 10.2634 8.70108 10.7322 8.23223C11.2011 7.76339 11.837 7.5 12.5 7.5C13.163 7.5 13.7989 7.76339 14.2678 8.23223C14.7366 8.70108 15 9.33696 15 10C15 12.5 11.25 12.1875 11.25 16.25H13.75C13.75 13.4375 17.5 13.125 17.5 10C17.5 8.67392 16.9732 7.40215 16.0355 6.46447C15.0979 5.52678 13.8261 5 12.5 5Z" fill="white"/>
</svg>
