<svg width="24" height="23" viewBox="0 0 24 23" fill="none" xmlns="http://www.w3.org/2000/svg">
<path d="M18.5986 4.1873C18.2422 4.1873 17.9004 4.32897 17.6484 4.58097C17.3963 4.83296 17.2548 5.1747 17.2548 5.53107C17.2548 5.88745 17.3963 6.22918 17.6484 6.48117C17.9004 6.73317 18.2422 6.87484 18.5986 6.87484C18.955 6.87484 19.2967 6.73317 19.5487 6.48117C19.8007 6.22918 19.9423 5.88745 19.9423 5.53107C19.9423 5.1747 19.8007 4.83296 19.5487 4.58097C19.2967 4.32897 18.955 4.1873 18.5986 4.1873Z" fill="white"/>
<path d="M12.5069 5.97897C11.0107 5.98092 9.57622 6.57623 8.51822 7.63424C7.46022 8.69226 6.86499 10.1266 6.86305 11.6228C6.86499 13.1191 7.46022 14.5535 8.51822 15.6115C9.57622 16.6696 11.0107 17.2647 12.5069 17.2666C14.0032 17.2647 15.4375 16.6696 16.4955 15.6115C17.5535 14.5535 18.1488 13.1191 18.1507 11.6228C18.1488 10.1266 17.5535 8.69226 16.4955 7.63424C15.4375 6.57623 14.0032 5.98092 12.5069 5.97897ZM12.5069 15.241C11.5473 15.241 10.627 14.8599 9.94843 14.1813C9.26988 13.5028 8.88867 12.5824 8.88867 11.6228C8.88867 10.6632 9.26988 9.74284 9.94843 9.06428C10.627 8.38573 11.5473 8.00461 12.5069 8.00461C13.4665 8.00461 14.3868 8.38573 15.0653 9.06428C15.7439 9.74284 16.1251 10.6632 16.1251 11.6228C16.1251 12.5824 15.7439 13.5028 15.0653 14.1813C14.3868 14.8599 13.4665 15.241 12.5069 15.241Z" fill="white"/>
<path d="M16.9959 23H7.8386C6.01234 22.9981 4.26142 22.272 2.97005 20.981C1.67869 19.6901 0.95236 17.9396 0.950417 16.1139V6.95958C0.950416 5.13263 1.67588 3.38038 2.96745 2.08784C4.25903 0.795306 6.01107 0.0682908 7.8386 0.0663452H16.9959C18.8228 0.07023 20.5737 0.797877 21.8649 2.08999C23.156 3.38211 23.8821 5.13323 23.8841 6.95958V16.1139C23.8821 17.9396 23.1558 19.6901 21.8644 20.981C20.5731 22.272 18.8222 22.9981 16.9959 23ZM7.8386 2.22459C6.58239 2.22459 5.37758 2.72346 4.48931 3.61145C3.60103 4.49944 3.102 5.70377 3.102 6.95958V16.1139C3.10395 17.3685 3.60384 18.571 4.4919 19.4574C5.37997 20.3438 6.58366 20.8416 7.8386 20.8416H16.9959C18.2496 20.8396 19.4513 20.3411 20.3377 19.4549C21.2242 18.5687 21.7231 17.3672 21.725 16.1139V6.95958C21.725 5.70504 21.227 4.50174 20.3403 3.61396C19.4537 2.72618 18.2508 2.22654 16.9959 2.22459H7.8386Z" fill="white"/>
</svg>
