<svg width="28" height="23" viewBox="0 0 28 23" fill="none" xmlns="http://www.w3.org/2000/svg">
<path d="M5.25 6.19231C5.25 5.95769 5.34219 5.73269 5.50628 5.56679C5.67038 5.40089 5.89294 5.30769 6.125 5.30769H18.375C18.6071 5.30769 18.8296 5.40089 18.9937 5.56679C19.1578 5.73269 19.25 5.95769 19.25 6.19231C19.25 6.42692 19.1578 6.65193 18.9937 6.81782C18.8296 6.98372 18.6071 7.07692 18.375 7.07692H6.125C5.89294 7.07692 5.67038 6.98372 5.50628 6.81782C5.34219 6.65193 5.25 6.42692 5.25 6.19231ZM14.875 10.6154C14.6429 10.6154 14.4204 10.7086 14.2563 10.8745C14.0922 11.0404 14 11.2654 14 11.5C14 11.7346 14.0922 11.9596 14.2563 12.1255C14.4204 12.2914 14.6429 12.3846 14.875 12.3846H18.375C18.6071 12.3846 18.8296 12.2914 18.9937 12.1255C19.1578 11.9596 19.25 11.7346 19.25 11.5C19.25 11.2654 19.1578 11.0404 18.9937 10.8745C18.8296 10.7086 18.6071 10.6154 18.375 10.6154H14.875ZM14 16.8077C14 16.5731 14.0922 16.3481 14.2563 16.1822C14.4204 16.0163 14.6429 15.9231 14.875 15.9231H18.375C18.6071 15.9231 18.8296 16.0163 18.9937 16.1822C19.1578 16.3481 19.25 16.5731 19.25 16.8077C19.25 17.0423 19.1578 17.2673 18.9937 17.4332C18.8296 17.5991 18.6071 17.6923 18.375 17.6923H14.875C14.6429 17.6923 14.4204 17.5991 14.2563 17.4332C14.0922 17.2673 14 17.0423 14 16.8077ZM6.125 10.6154C5.89294 10.6154 5.67038 10.7086 5.50628 10.8745C5.34219 11.0404 5.25 11.2654 5.25 11.5V16.8077C5.25 17.0423 5.34219 17.2673 5.50628 17.4332C5.67038 17.5991 5.89294 17.6923 6.125 17.6923H11.375C11.6071 17.6923 11.8296 17.5991 11.9937 17.4332C12.1578 17.2673 12.25 17.0423 12.25 16.8077V11.5C12.25 11.2654 12.1578 11.0404 11.9937 10.8745C11.8296 10.7086 11.6071 10.6154 11.375 10.6154H6.125ZM7 15.9231V12.3846H10.5V15.9231H7ZM0 3.53846C0 2.6 0.368749 1.69998 1.02513 1.03639C1.6815 0.372801 2.57174 0 3.5 0H21C21.9283 0 22.8185 0.372801 23.4749 1.03639C24.1313 1.69998 24.5 2.6 24.5 3.53846V5.30769C25.4283 5.30769 26.3185 5.68049 26.9749 6.34408C27.6313 7.00767 28 7.9077 28 8.84615V18.5769C28 19.75 27.5391 20.875 26.7186 21.7045C25.8981 22.534 24.7853 23 23.625 23H4.375C3.21468 23 2.10188 22.534 1.28141 21.7045C0.460936 20.875 0 19.75 0 18.5769V3.53846ZM22.75 3.53846C22.75 3.06923 22.5656 2.61922 22.2374 2.28743C21.9092 1.95563 21.4641 1.76923 21 1.76923H3.5C3.03587 1.76923 2.59075 1.95563 2.26256 2.28743C1.93437 2.61922 1.75 3.06923 1.75 3.53846V18.5769C1.75 19.2808 2.02656 19.9558 2.51884 20.4535C3.01113 20.9512 3.67881 21.2308 4.375 21.2308H23.625C24.3212 21.2308 24.9889 20.9512 25.4812 20.4535C25.9734 19.9558 26.25 19.2808 26.25 18.5769V8.84615C26.25 8.37692 26.0656 7.92691 25.7374 7.59512C25.4093 7.26332 24.9641 7.07692 24.5 7.07692V18.5769C24.5 18.8115 24.4078 19.0365 24.2437 19.2024C24.0796 19.3683 23.8571 19.4615 23.625 19.4615C23.3929 19.4615 23.1704 19.3683 23.0063 19.2024C22.8422 19.0365 22.75 18.8115 22.75 18.5769V3.53846Z" fill="white"/>
</svg>
