<svg width="82" height="82" viewBox="0 0 82 82" fill="none" xmlns="http://www.w3.org/2000/svg">
<path d="M4 68.75C4 63.8435 5.9491 59.1379 9.41852 55.6685C12.8879 52.1991 17.5935 50.25 22.5 50.25H59.5C64.4065 50.25 69.112 52.1991 72.5815 55.6685C76.0509 59.1379 78 63.8435 78 68.75C78 71.2033 77.0254 73.556 75.2907 75.2907C73.556 77.0254 71.2033 78 68.75 78H13.25C10.7967 78 8.44397 77.0254 6.70926 75.2907C4.97455 73.556 4 71.2033 4 68.75Z" stroke="#3898F3" stroke-width="8" stroke-linejoin="round"/>
<path d="M41 31.75C48.663 31.75 54.875 25.538 54.875 17.875C54.875 10.212 48.663 4 41 4C33.337 4 27.125 10.212 27.125 17.875C27.125 25.538 33.337 31.75 41 31.75Z" stroke="#3898F3" stroke-width="8"/>
</svg>
