<svg width="26" height="26" viewBox="0 0 26 26" fill="none" xmlns="http://www.w3.org/2000/svg">
<path d="M13.25 8.25V18.25M2 13.25C2 14.7274 2.29099 16.1903 2.85636 17.5552C3.42172 18.9201 4.25039 20.1603 5.29505 21.205C6.33971 22.2496 7.5799 23.0783 8.94481 23.6436C10.3097 24.209 11.7726 24.5 13.25 24.5C14.7274 24.5 16.1903 24.209 17.5552 23.6436C18.9201 23.0783 20.1603 22.2496 21.205 21.205C22.2496 20.1603 23.0783 18.9201 23.6436 17.5552C24.209 16.1903 24.5 14.7274 24.5 13.25C24.5 11.7726 24.209 10.3097 23.6436 8.94481C23.0783 7.5799 22.2496 6.33971 21.205 5.29505C20.1603 4.25039 18.9201 3.42172 17.5552 2.85636C16.1903 2.29099 14.7274 2 13.25 2C11.7726 2 10.3097 2.29099 8.94481 2.85636C7.5799 3.42172 6.33971 4.25039 5.29505 5.29505C4.25039 6.33971 3.42172 7.5799 2.85636 8.94481C2.29099 10.3097 2 11.7726 2 13.25Z" stroke="white" stroke-width="2.66667" stroke-linecap="round" stroke-linejoin="round"/>
</svg>
