<svg width="26" height="26" viewBox="0 0 26 26" fill="none" xmlns="http://www.w3.org/2000/svg">
<path d="M12.6314 25.2629C9.28252 25.259 6.07195 23.927 3.70394 21.559C1.33593 19.191 0.00389178 15.9803 0 12.6314C0.00389178 9.28255 1.33593 6.07188 3.70394 3.70386C6.07195 1.33584 9.28252 0.00389179 12.6314 0C15.9803 0.00389179 19.1909 1.33584 21.5589 3.70386C23.9269 6.07188 25.259 9.28255 25.2629 12.6314C25.259 15.9803 23.9269 19.191 21.5589 21.559C19.1909 23.927 15.9803 25.259 12.6314 25.2629ZM12.6314 2.7866C10.0216 2.79049 7.51976 3.82883 5.67433 5.67426C3.8289 7.5197 2.79039 10.0216 2.7865 12.6314C2.79039 15.2413 3.8289 17.7432 5.67433 19.5886C7.51976 21.434 10.0216 22.4726 12.6314 22.4764C15.2418 22.4745 17.7448 21.4366 19.5907 19.5908C21.4365 17.7449 22.4743 15.2419 22.4763 12.6314C22.4743 10.021 21.4365 7.51796 19.5907 5.67211C17.7448 3.82625 15.2418 2.78855 12.6314 2.7866Z" fill="white"/>
<path d="M11.6487 12.6597C11.2712 12.6752 10.8947 12.7096 10.5207 12.7631C10.237 12.7986 9.96344 12.8923 9.71679 13.0382C9.47014 13.184 9.25551 13.3791 9.08617 13.6114C8.91682 13.8438 8.79625 14.1086 8.73183 14.3896C8.6674 14.6706 8.66053 14.9619 8.71153 15.2457C8.77576 15.7792 9.03833 16.2681 9.44623 16.6138C9.85413 16.9594 10.3769 17.1359 10.9089 17.1077C11.1883 17.1108 11.4654 17.0567 11.7235 16.9487C11.9815 16.8408 12.2152 16.6811 12.4103 16.4794C12.6055 16.2777 12.7581 16.0382 12.8588 15.7753C12.9596 15.5125 13.0064 15.2317 12.9964 14.9501C12.9964 12.1793 12.9964 9.40862 12.9964 6.63789V5.57398C13.7802 5.57398 14.4614 5.52965 15.1938 5.57398C15.4136 5.57398 15.6552 5.88428 15.7944 6.10594C16.1418 6.73257 16.6267 7.27074 17.2119 7.67926C17.7972 8.08779 18.4673 8.3558 19.1711 8.46286L18.7024 10.9899L15.4428 9.58594C15.4428 11.4774 15.5088 13.4133 15.4428 15.3417C15.3574 16.4378 14.8804 17.4652 14.1003 18.2331C13.3202 19.001 12.2903 19.4571 11.2019 19.5164C10.5806 19.5637 9.9562 19.4826 9.36692 19.2784C8.77764 19.0742 8.23581 18.7512 7.77449 18.3287C7.31317 17.9062 6.9421 17.3932 6.68384 16.8212C6.42558 16.2492 6.28553 15.6302 6.27236 15.0018C6.2568 14.3816 6.36321 13.7644 6.58531 13.1859C6.80741 12.6074 7.14083 12.079 7.56643 11.6312C7.99203 11.1833 8.50136 10.8249 9.06498 10.5766C9.6286 10.3283 10.2353 10.195 10.8503 10.1845C11.1066 10.1845 11.3703 10.1845 11.6926 10.1845L11.6487 12.6597Z" fill="white"/>
</svg>
