<svg width="56" height="55" viewBox="0 0 56 55" fill="none" xmlns="http://www.w3.org/2000/svg">
<path d="M23.5962 53.0063C25.7642 53.0063 27.5217 51.2488 27.5217 49.0808C27.5217 46.9129 25.7642 45.1554 23.5962 45.1554C21.4283 45.1554 19.6708 46.9129 19.6708 49.0808C19.6708 51.2488 21.4283 53.0063 23.5962 53.0063Z" stroke="white" stroke-width="4" stroke-linecap="round" stroke-linejoin="round"/>
<path d="M41.2608 53.0063C43.4287 53.0063 45.1862 51.2488 45.1862 49.0808C45.1862 46.9129 43.4287 45.1554 41.2608 45.1554C39.0928 45.1554 37.3353 46.9129 37.3353 49.0808C37.3353 51.2488 39.0928 53.0063 41.2608 53.0063Z" stroke="white" stroke-width="4" stroke-linecap="round" stroke-linejoin="round"/>
<path d="M32.9386 13.9088C32.3362 11.4889 31.1661 9.24728 29.5251 7.36952C27.8842 5.49176 25.8196 4.03185 23.5022 3.11064C21.1849 2.18943 18.6814 1.83342 16.1991 2.07207C13.7168 2.31073 11.3271 3.13718 9.2277 4.48303C7.12831 5.82887 5.37967 7.6554 4.12653 9.8114C2.87339 11.9674 2.15179 14.3909 2.02146 16.8812C1.89113 19.3715 2.35583 21.8571 3.37708 24.1321C4.39833 26.4072 5.94677 28.4062 7.89421 29.9639M17.7078 17.7557L23.596 11.8675M25.5587 37.3437V33.4183H19.6706C17.5884 33.4183 15.5915 34.2454 14.1191 35.7177C12.6468 37.1901 11.8197 39.187 11.8197 41.2692V49.1201" stroke="white" stroke-width="4" stroke-linecap="round" stroke-linejoin="round"/>
<path d="M53.0371 49.0808V29.4536C53.0371 28.4125 52.6236 27.414 51.8874 26.6778C51.1512 25.9417 50.1528 25.5281 49.1117 25.5281H29.4844C28.4433 25.5281 27.4449 25.9417 26.7087 26.6778C25.9725 27.414 25.559 28.4125 25.559 29.4536V37.3045" stroke="white" stroke-width="4" stroke-linecap="round" stroke-linejoin="round"/>
</svg>
