<svg width="219" height="49" viewBox="0 0 219 49" fill="none" xmlns="http://www.w3.org/2000/svg">
<path d="M25.8501 9.97857V17.2727L19.5381 13.647V6.40103L19.5811 6.37964L25.8501 9.97857Z" fill="white"/>
<path d="M32.7641 6.40103V13.647L26.4521 17.2727V9.97857L32.7211 6.37964L32.7641 6.40103Z" fill="white"/>
<path d="M32.4203 5.87698L26.9309 9.02671L26.3233 9.3743L26.1513 9.47591L25.9739 9.3743L25.3663 9.02671L19.8823 5.87698L21.4523 4.97858L22.0921 4.6096L22.7372 4.24061L23.0168 4.08018L23.0867 4.0374L23.6566 3.7112L25.3663 2.72724L26.1513 2.27805L26.9309 2.72724L28.646 3.7112L29.2159 4.0374L29.2858 4.08018L29.5654 4.24061L30.2105 4.6096L30.8503 4.97858L32.4203 5.87698Z" fill="white"/>
<path d="M22.7695 25.6738C14.4263 31.2898 7.02986 38.1844 0.85498 46.1016H30.6353V46.0321C30.6353 45.5722 30.6729 45.1123 30.6353 44.6524C30.4256 39.8396 31.7106 35.3689 34.0063 31.1764C37.1462 25.4117 41.571 20.7326 46.7002 16.6845C47.3669 16.1497 48.0174 15.615 48.7002 15.0802C49.3831 14.5454 50.0551 14.1337 50.7379 13.6577C40.4473 15.6524 31.2643 19.9144 22.7695 25.6738ZM16.8984 45.2139L16.2102 45.0107C16.5113 43.9946 16.8607 42.9786 17.2479 41.9946L17.9199 42.2566C17.5382 43.2192 17.1995 44.2192 16.8984 45.2139ZM19.1834 39.3903L18.5382 39.0748C19.0059 38.1283 19.5221 37.1871 20.0705 36.2727L20.6888 36.6417C20.1458 37.5347 19.6404 38.4599 19.1834 39.3903ZM22.4093 34.0427L21.8232 33.6257C22.4362 32.7754 23.0974 31.9251 23.7856 31.1069L24.3233 31.5668C23.6674 32.3475 23.0168 33.1979 22.4146 34.0214L22.4093 34.0427ZM26.447 29.2299L25.9093 28.7273C26.6405 27.9786 27.4201 27.2353 28.2212 26.5187L28.6997 27.0535C27.9417 27.7486 27.1728 28.4813 26.4524 29.2193L26.447 29.2299ZM31.1353 25.0267L30.689 24.4919C31.5116 23.8449 32.3719 23.2086 33.2536 22.5936L33.6676 23.1765C32.802 23.7486 31.9525 24.3796 31.1192 25.016L31.1353 25.0267ZM36.3021 21.4224L35.9257 20.8128C36.8128 20.278 37.743 19.7433 38.6839 19.2085L39.0333 19.8342C38.1086 20.3315 37.1892 20.8663 36.3075 21.4331L36.3021 21.4224ZM41.8345 18.369L41.5173 17.7272C42.4582 17.2673 43.4367 16.8128 44.4152 16.385L44.7055 17.0428C43.7378 17.4545 42.7754 17.9037 41.8399 18.3583L41.8345 18.369Z" fill="white"/>
<path d="M0 15.3369C5.91477 18.723 11.3407 22.8911 16.1294 27.7273L23.7318 22.7379C16.1527 19.3215 8.1834 16.8362 0 15.3369ZM7.33352 18.8074C6.68297 18.5133 6.02164 18.2192 5.36571 17.9411L5.65068 17.2834C6.31199 17.5668 6.97867 17.8609 7.6346 18.155L7.33352 18.8074ZM11.2046 20.6737C10.5863 20.3529 9.93573 20.0321 9.2798 19.7166L9.597 19.0748C10.2583 19.3903 10.9089 19.7166 11.5379 20.0374L11.2046 20.6737ZM14.9681 22.754C14.3875 22.4064 13.7638 22.0427 13.1132 21.6844L13.4627 21.0588C14.124 21.4225 14.7531 21.7861 15.3391 22.1283L14.9681 22.754ZM16.7692 23.9037L17.1725 23.3155C17.7799 23.7226 18.3649 24.1617 18.9252 24.631L18.4628 25.1657C17.9163 24.717 17.3474 24.2958 16.7585 23.9037H16.7692Z" fill="white"/>
<path d="M70.991 31.3262L58.238 13.2406H69.0931L75.5826 22.7486L82.0343 13.2406H92.8894L80.0827 31.3262V48.0321H70.991V31.3262ZM84.6312 4.385L75.7438 10.4759L72.2223 7.19784L79.7816 0L84.6312 4.385Z" fill="white"/>
<path d="M90.5667 30.6363C90.5454 28.1577 91.034 25.701 92.0022 23.417C92.9328 21.2284 94.2884 19.244 95.9915 17.5775C97.7425 15.8871 99.8154 14.5617 102.088 13.6791C104.579 12.7198 107.23 12.2424 109.901 12.2727C112.565 12.2459 115.211 12.7232 117.696 13.6791C119.984 14.5606 122.073 15.8858 123.842 17.5775C125.557 19.2388 126.92 21.2241 127.853 23.417C128.823 25.7006 129.313 28.1573 129.293 30.6363C129.313 33.1152 128.823 35.572 127.853 37.8555C126.92 40.0484 125.557 42.0339 123.842 43.6951C122.073 45.3868 119.984 46.712 117.696 47.5935C115.211 48.5495 112.565 49.0267 109.901 49C107.23 49.0302 104.579 48.5529 102.088 47.5935C99.8135 46.7116 97.7387 45.3861 95.9862 43.6951C94.2831 42.0286 92.9274 40.0441 91.9968 37.8555C91.0304 35.5712 90.5437 33.1145 90.5667 30.6363ZM100.072 30.6363C100.058 31.954 100.328 33.2596 100.863 34.4652C101.374 35.6102 102.105 36.6454 103.013 37.5133C103.916 38.3768 104.979 39.0579 106.142 39.5186C107.339 39.9956 108.617 40.239 109.906 40.2352C111.195 40.239 112.473 39.9956 113.669 39.5186C114.84 39.056 115.911 38.3754 116.825 37.5133C117.738 36.6487 118.469 35.6127 118.976 34.4652C119.511 33.2596 119.781 31.954 119.766 30.6363C119.78 29.3186 119.51 28.0132 118.976 26.8074C118.467 25.6607 117.737 24.6249 116.825 23.7593C115.91 22.8989 114.839 22.2185 113.669 21.7539C112.473 21.2769 111.195 21.0336 109.906 21.0374C108.617 21.0336 107.339 21.2769 106.142 21.7539C104.979 22.2162 103.917 22.8971 103.013 23.7593C102.106 24.6282 101.376 25.6632 100.863 26.8074C100.328 28.0132 100.059 29.3186 100.072 30.6363Z" fill="white"/>
<path d="M142.901 13.2407V40.369H153.8V48.0321H133.81V13.2407H142.901Z" fill="white"/>
<path d="M167.579 13.2407V40.369H178.478V48.0321H158.482V13.2407H167.579Z" fill="white"/>
<path d="M180.268 30.6363C180.246 28.1571 180.737 25.6999 181.709 23.417C182.637 21.2273 183.993 19.2425 185.698 17.5775C187.448 15.8863 189.521 14.5608 191.795 13.6791C194.287 12.7191 196.94 12.2417 199.612 12.2727C202.275 12.2464 204.919 12.7237 207.403 13.6791C209.692 14.5618 211.782 15.8868 213.554 17.5775C215.268 19.2388 216.632 21.2241 217.564 23.417C218.533 25.701 219.021 28.1577 219 30.6363C219.021 33.1149 218.533 35.5716 217.564 37.8555C216.632 40.0484 215.268 42.0339 213.554 43.6951C211.782 45.3859 209.692 46.7108 207.403 47.5935C204.919 48.5489 202.275 49.0262 199.612 49C196.94 49.0309 194.287 48.5535 191.795 47.5935C189.521 46.7119 187.448 45.3863 185.698 43.6951C183.993 42.0301 182.637 40.0452 181.709 37.8555C180.737 35.5726 180.246 33.1154 180.268 30.6363ZM189.779 30.6363C189.765 31.954 190.034 33.2596 190.569 34.4652C191.08 35.6103 191.811 36.6456 192.72 37.5133C193.623 38.3785 194.688 39.0597 195.854 39.5186C197.051 39.9956 198.329 40.239 199.618 40.2352C200.907 40.239 202.185 39.9956 203.381 39.5186C204.551 39.0547 205.622 38.3742 206.537 37.5133C207.448 36.6472 208.179 35.6116 208.688 34.4652C209.223 33.2596 209.492 31.954 209.478 30.6363C209.492 29.3186 209.222 28.0132 208.688 26.8074C208.177 25.6619 207.447 24.6264 206.537 23.7593C205.621 22.9 204.55 22.2198 203.381 21.7539C202.185 21.2769 200.907 21.0336 199.618 21.0374C198.329 21.0336 197.051 21.2769 195.854 21.7539C194.689 22.2149 193.625 22.8959 192.72 23.7593C191.812 24.6279 191.082 25.663 190.569 26.8074C190.035 28.0132 189.765 29.3186 189.779 30.6363Z" fill="white"/>
</svg>
